<svg width="512" height="512" fill="none" xmlns="http://www.w3.org/2000/svg"><g clip-path="url(#a)"><path d="M171.333 512c47.104 0 85.334-38.229 85.334-85.333v-85.334h-85.334c-47.104 0-85.333 38.23-85.333 85.334C86 473.771 124.229 512 171.333 512Z" fill="#0ACF83"/><path d="M86 256c0-47.104 38.229-85.333 85.333-85.333h85.334v170.666h-85.334C124.229 341.333 86 303.104 86 256Z" fill="#A259FF"/><path d="M86 85.333C86 38.23 124.229 0 171.333 0h85.334v170.667h-85.334c-47.104 0-85.333-38.23-85.333-85.334Z" fill="#F24E1E"/><path d="M256.667 0H342c47.104 0 85.333 38.23 85.333 85.333 0 47.104-38.229 85.334-85.333 85.334h-85.333V0Z" fill="#FF7262"/><path d="M427.333 256c0 47.104-38.229 85.333-85.333 85.333S256.667 303.104 256.667 256s38.229-85.333 85.333-85.333 85.333 38.229 85.333 85.333Z" fill="#1ABCFE"/></g><defs><clipPath id="a"><path fill="#fff" d="M0 0h512v512H0z"/></clipPath></defs></svg>