<svg width="512" height="512" fill="none" xmlns="http://www.w3.org/2000/svg"><g clip-path="url(#a)"><path fill-rule="evenodd" clip-rule="evenodd" d="M494.662 233.836 277.204 16.394c-12.514-12.525-32.827-12.525-45.358 0l-45.155 45.155 57.282 57.281c13.312-4.497 28.575-1.481 39.187 9.132 10.662 10.678 13.657 26.072 9.05 39.428l55.205 55.205c13.356-4.602 28.766-1.623 39.433 9.06 14.908 14.903 14.908 39.057 0 53.97-14.913 14.913-39.067 14.913-53.986 0-11.214-11.225-13.984-27.695-8.306-41.51l-51.484-51.483-.005 135.481a38.58 38.58 0 0 1 10.093 7.219c14.908 14.902 14.908 39.057 0 53.981-14.913 14.908-39.078 14.908-53.969 0-14.908-14.924-14.908-39.079 0-53.981a38.227 38.227 0 0 1 12.492-8.328V190.26a37.688 37.688 0 0 1-12.492-8.328c-11.296-11.28-14.012-27.854-8.225-41.724l-56.461-56.472L15.399 232.83c-12.53 12.536-12.53 32.849 0 45.374l217.458 217.447c12.52 12.525 32.827 12.525 45.363 0l216.442-216.436c12.525-12.531 12.525-32.854 0-45.379Z" fill="#DE4C36"/></g><defs><clipPath id="a"><path fill="#fff" transform="translate(6 7)" d="M0 0h500v498.054H0z"/></clipPath></defs></svg>