<svg width="512" height="512" fill="none" xmlns="http://www.w3.org/2000/svg"><g clip-path="url(#a)" fill-rule="evenodd" clip-rule="evenodd"><path d="m317.276 490.761 4.794-79.886 13.237-22.597s-30.129 12.325-80.569 12.325c-50.442 0-80.114-12.097-80.114-12.097l14.835 24.65 5.249 77.605c0 8.319 27.437 15.063 61.284 15.063 33.845 0 61.284-6.744 61.284-15.063ZM302.153 117.708l10.063-39.774 55.725-58.636-14.687-12.51-58.997 62.462-11.684 47.52c-8.465-.286-17.3-.439-26.389-.439-62.135 0-112.505 7.082-112.505 15.815 0 8.734 50.37 15.814 112.505 15.814 62.133 0 112.502-7.08 112.502-15.814 0-6.431-27.318-11.967-66.533-14.438Z" fill="#D34A47"/><path d="M296.299 139.983s-2.179.489-8.59.516c-6.412.027-10.965-.041-12.779-1.693-.487-.444-.754-1.325-.752-1.921.006-1.135.811-1.804 1.838-2.222l.971 1.523c-.423.145-.664.318-.665.501-.003.862 6.557 1.453 11.575 1.389 5.018-.062 11.082-.475 11.087-1.325 0-.257-.458-.499-1.256-.69l.966-1.512c1.301.403 2.436 1.183 2.433 2.533-.012 2.295-2.933 2.644-4.828 2.901Z" fill="#fff"/><path d="M367.831 19.413c1.401-1.618-.725-5.758-4.749-9.244-4.025-3.485-8.425-5-9.828-3.381-1.402 1.618.725 5.758 4.75 9.243 4.024 3.486 8.425 5.002 9.827 3.382ZM314.595 295.633c-1.32-12.706 27.794-31.109 20.322-31.698-16.085.919-24.09 18.849-32.183 37.629-2.965 6.882-13.113 36.23-19.768 32.617-6.654-3.611 8.626-27.745 12.909-42.077-4.942 3.624-23.065 17.704-27.735 4.518-7.509 6.377-23.554 9.832-21.744-6.92-3.995 7.076-12.96 16.955-23.722 12.85-14.132-5.389 8.189-50.408 13.739-48.137 5.552 2.27-1.12 12.526-2.867 16.508-3.843 8.764-8.282 19.782-5.316 22.037 5.08 3.864 18.905-14.617 19.213-15.024 2.585-3.416 9.952-25.765 15.889-23.198 5.937 2.566-14.809 32.074-7.052 37.93 1.565 1.182 7.966-.729 11.86-4.942 2.519-2.725 1.652-8.761 10.051-28.79 8.398-20.027 15.883-44.969 21.643-43.069 5.76 1.9 1.012 14.701-1.054 19.473-9.696 22.398-26.463 59.4-18.556 56.599 7.908-2.8 12.025-2.965 19.768-12.026s7.386-23.985 12.547-23.668c5.162.318 4.296 5.103 3.044 8.747 5.08-5.813 24.078-18.055 28.664-5.93 5.433 14.354-27.181 35.088-19.049 34.031 7.928-1.031 20.773-9.166 26.257-16.563l15.095-135.712s-15.19 12.571-111.827 12.571c-96.639 0-110.257-12.31-110.257-12.31l12.851 123.873c6.822-19.388 23.02-58.603 48.554-57.287 11.615.599 27.12 22.964 13.838 23.722-5.622.32-6.192-11.164-12.849-12.85-4.804-1.217-11.493 2.688-15.815 6.92-8.62 8.436-27.16 41.721-24.71 58.316 3.121 21.156 29.194-7.352 33.606-15.815 3.107-5.962 5.206-23.627 12.001-21.773 6.796 1.853-.593 20.083-5.519 36.2-5.533 18.098-8.442 37.189-15.378 34.993-6.936-2.194 4.362-25.558 3.953-29.652-6.519 6.015-18.53 21.243-33.896 13.706l7.982 76.924s21.213 16.761 85.115 16.761c63.902 0 85.9-16.5 85.9-16.5l9.911-89.096c-8.109 7.896-33.771 21.917-35.415 6.112Z" fill="#D34A47"/></g><defs><clipPath id="a"><path fill="#fff" transform="translate(143 6)" d="M0 0h227v500H0z"/></clipPath></defs></svg>