<svg width="512" height="512" fill="none" xmlns="http://www.w3.org/2000/svg"><path fill-rule="evenodd" clip-rule="evenodd" d="M71.085 460.819 30 0h451.456l-41.129 460.746L255.451 512 71.085 460.819Z" fill="#E44D26"/><path fill-rule="evenodd" clip-rule="evenodd" d="m255.728 472.824 149.388-41.416 35.147-393.73H255.728v435.146Z" fill="#F16529"/><g fill="#EBEBEB"><path d="M180.94 208.59h74.788v56.517H129.253l-15.244-170.91h141.719v56.518h-79.953l5.165 57.875ZM255.48 355.438l.248-.066v58.802l-.26.072-115.772-32.139-7.918-88.741h56.735l4.023 45.076 62.944 16.996Z"/></g><g fill="#fff"><path d="M255.532 94.197H397.11l-5.061 56.518H255.532V94.197ZM255.532 265.107V208.59h131.375l-1.379 15.176-14.132 158.341-115.864 32.112v-58.8l63.035-17.013 6.561-73.299h-69.596Z"/></g></svg>