<svg width="512" height="512" fill="none" xmlns="http://www.w3.org/2000/svg"><g fill-rule="evenodd" clip-rule="evenodd" clip-path="url(#a)"><path d="M0 0h512v512H0V0Z" fill="#F7DF1E"/><path d="m134.624 427.865 39.182-23.712c7.559 13.402 14.435 24.741 30.929 24.741 15.81 0 25.778-6.184 25.778-30.24V235.058h48.115v164.276c0 49.835-29.212 72.518-71.831 72.518-38.49 0-60.833-19.935-72.174-43.991M304.762 422.709l39.177-22.683c10.313 16.842 23.717 29.214 47.43 29.214 19.936 0 32.649-9.968 32.649-23.716 0-16.497-13.059-22.34-35.056-31.96l-12.025-5.159c-34.715-14.775-57.743-33.334-57.743-72.515 0-36.087 27.495-63.583 70.457-63.583 30.589 0 52.584 10.655 68.392 38.494l-37.462 24.057c-8.249-14.778-17.182-20.619-30.929-20.619-14.091 0-23.028 8.935-23.028 20.619 0 14.435 8.937 20.279 29.556 29.215l12.028 5.155c40.899 17.529 63.927 35.399 63.927 75.609 0 43.307-34.025 67.019-79.734 67.019-44.679 0-73.55-21.307-87.638-49.147" fill="#000"/></g><defs><clipPath id="a"><path fill="#fff" d="M0 0h512v512H0z"/></clipPath></defs></svg>