<svg width="512" height="512" fill="none" xmlns="http://www.w3.org/2000/svg"><g clip-path="url(#a)"><path d="M40 0h432c22.091 0 40 17.909 40 40v432c0 22.091-17.909 40-40 40H40c-22.091 0-40-17.909-40-40V40C0 17.909 17.909 0 40 0Z" fill="#3178C6"/><path d="M301.036 400.95v55.24c8.984 4.604 19.61 8.056 31.876 10.358 12.266 2.302 25.194 3.452 38.786 3.452 13.244 0 25.828-1.266 37.748-3.798 11.92-2.532 22.374-6.704 31.356-12.514 8.984-5.812 16.096-13.408 21.338-22.788 5.24-9.378 7.86-20.972 7.86-34.782 0-10.012-1.498-18.788-4.492-26.326-2.994-7.538-7.314-14.242-12.958-20.11-5.642-5.87-12.41-11.134-20.298-15.796-7.89-4.66-16.788-9.062-26.694-13.204-7.256-2.994-13.762-5.898-19.522-8.718-5.758-2.82-10.654-5.696-14.684-8.632-4.032-2.934-7.142-6.042-9.33-9.322-2.188-3.28-3.282-6.99-3.282-11.134 0-3.798.978-7.22 2.936-10.27s4.724-5.668 8.294-7.854c3.57-2.188 7.946-3.884 13.13-5.094 5.182-1.208 10.942-1.812 17.276-1.812 4.608 0 9.474.346 14.598 1.036 5.126.69 10.28 1.754 15.464 3.194a107.338 107.338 0 0 1 15.116 5.438c4.894 2.186 9.416 4.718 13.562 7.594v-51.614c-8.408-3.222-17.594-5.61-27.556-7.164-9.962-1.554-21.394-2.33-34.294-2.33-13.13 0-25.568 1.41-37.316 4.23-11.748 2.818-22.086 7.22-31.012 13.204-8.926 5.986-15.98 13.61-21.164 22.874-5.182 9.264-7.774 20.34-7.774 33.23 0 16.456 4.75 30.496 14.254 42.12 9.502 11.622 23.926 21.462 43.276 29.518 7.602 3.108 14.686 6.156 21.25 9.15 6.566 2.992 12.238 6.098 17.018 9.32 4.78 3.222 8.552 6.732 11.316 10.53 2.764 3.798 4.146 8.114 4.146 12.948 0 3.566-.864 6.876-2.592 9.926-1.726 3.048-4.348 5.696-7.86 7.94-3.512 2.244-7.89 3.998-13.13 5.264-5.24 1.266-11.374 1.9-18.4 1.9-11.978 0-23.84-2.1-35.588-6.302-11.75-4.2-22.634-10.5-32.654-18.902Zm-92.072-137.466H280V218H82v45.484h70.689V466h56.275V263.484Z" fill="#fff"/></g><defs><clipPath id="a"><path fill="#fff" d="M0 0h512v512H0z"/></clipPath></defs></svg>