<svg width="512" height="508" fill="none" xmlns="http://www.w3.org/2000/svg"><mask id="a" style="mask-type:alpha" maskUnits="userSpaceOnUse" x="0" y="0" width="511" height="508"><path d="M361.655 505.21a31.742 31.742 0 0 0 25.301-.972l105.002-50.525a31.88 31.88 0 0 0 18.05-28.727V82.394a31.878 31.878 0 0 0-18.05-28.726L386.956 3.14a31.753 31.753 0 0 0-36.228 6.17L149.713 192.698l-87.557-66.463c-8.151-6.187-19.552-5.68-27.122 1.206L6.952 152.987c-9.26 8.423-9.27 22.99-.023 31.427l75.933 69.275-75.933 69.275c-9.248 8.437-9.237 23.004.023 31.427l28.082 25.545c7.57 6.887 18.97 7.393 27.122 1.207l87.557-66.465 201.015 183.39a31.707 31.707 0 0 0 10.927 7.142Zm20.929-367.298L230.059 253.689l152.525 115.777V137.912Z" fill="#fff"/></mask><g mask="url(#a)"><path d="M492.27 53.746 387.186 3.15a31.77 31.77 0 0 0-36.246 6.16L6.933 322.964c-9.253 8.437-9.242 23.004.023 31.427l28.1 25.545c7.574 6.887 18.982 7.393 27.137 1.207l414.264-314.27c13.898-10.544 33.86-.632 33.86 16.813v-1.22a31.876 31.876 0 0 0-18.047-28.72Z" fill="#0065A9"/><path d="m492.27 453.632-105.084 50.596a31.774 31.774 0 0 1-36.246-6.16L6.933 184.414c-9.253-8.437-9.242-23.004.023-31.427l28.1-25.546c7.574-6.886 18.982-7.393 27.137-1.205l414.264 314.269c13.898 10.543 33.86.632 33.86-16.814v1.221a31.88 31.88 0 0 1-18.047 28.72Z" fill="#007ACC"/><path d="M386.857 504.269a31.787 31.787 0 0 1-36.251-6.168c11.762 11.762 31.876 3.43 31.876-13.205V22.546c0-16.635-20.114-24.966-31.876-13.204a31.786 31.786 0 0 1 36.251-6.169L491.922 53.7a31.875 31.875 0 0 1 18.062 28.726v342.592a31.875 31.875 0 0 1-18.062 28.726l-105.065 50.525Z" fill="#1F9CF0"/><path d="M361.656 505.21a31.745 31.745 0 0 0 25.299-.972l105.002-50.526a31.876 31.876 0 0 0 18.051-28.726V82.394a31.877 31.877 0 0 0-18.049-28.727L386.955 3.141a31.753 31.753 0 0 0-36.229 6.17L149.713 192.698l-87.557-66.463c-8.151-6.187-19.552-5.68-27.122 1.206L6.952 152.987c-9.26 8.423-9.27 22.99-.023 31.427l75.933 69.275-75.933 69.275c-9.248 8.437-9.237 23.004.023 31.428l28.082 25.544c7.57 6.887 18.97 7.393 27.122 1.207l87.557-66.464 201.013 183.389a31.71 31.71 0 0 0 10.93 7.142Zm20.928-367.299L230.06 253.689l152.524 115.778V137.911Z" fill="url(#b)" fill-opacity=".25"/></g><defs><linearGradient id="b" x1="255.004" y1="0" x2="255.004" y2="507.378" gradientUnits="userSpaceOnUse"><stop stop-color="#fff"/><stop offset="1" stop-color="#fff" stop-opacity="0"/></linearGradient></defs></svg>