<svg xmlns="http://www.w3.org/2000/svg" xmlns:xlink="http://www.w3.org/1999/xlink"><defs>
<clipPath id="clip0_1_1051">
<rect width="512" height="512" fill="white"/>
</clipPath>
</defs><symbol id="discord-icon" viewBox="0 0 512 512">
<path d="M433.43 93.3501C400.796 78.3767 365.802 67.3449 329.214 61.0265C328.547 60.9046 327.882 61.2093 327.539 61.8188C323.038 69.8234 318.053 80.266 314.562 88.4739C275.209 82.5823 236.057 82.5823 197.511 88.4739C194.019 80.0836 188.853 69.8234 184.332 61.8188C183.989 61.2296 183.323 60.9249 182.657 61.0265C146.089 67.3247 111.095 78.3565 78.4413 93.3501C78.1586 93.472 77.9163 93.6754 77.7555 93.9393C11.379 193.104 -6.80427 289.832 2.11584 385.36C2.1562 385.828 2.41856 386.275 2.78182 386.559C46.5751 418.72 88.9964 438.244 130.63 451.186C131.296 451.389 132.002 451.145 132.426 450.596C142.275 437.147 151.054 422.966 158.581 408.053C159.025 407.18 158.601 406.144 157.693 405.799C143.768 400.516 130.509 394.076 117.754 386.762C116.745 386.173 116.665 384.73 117.593 384.039C120.277 382.028 122.961 379.935 125.524 377.822C125.988 377.437 126.634 377.355 127.179 377.599C210.971 415.855 301.686 415.855 384.49 377.599C385.035 377.335 385.681 377.416 386.165 377.802C388.728 379.915 391.412 382.028 394.117 384.039C395.045 384.73 394.984 386.173 393.975 386.762C381.221 394.218 367.961 400.516 354.016 405.778C353.108 406.124 352.705 407.18 353.149 408.053C360.837 422.945 369.616 437.126 379.283 450.576C379.687 451.145 380.413 451.389 381.079 451.186C422.915 438.244 465.336 418.72 509.129 386.559C509.513 386.275 509.755 385.848 509.795 385.381C520.471 274.939 491.914 179.005 434.095 93.9595C433.954 93.6754 433.712 93.472 433.43 93.3501Z"/>
<path d="M125.079 275.59C125.079 304.033 145.866 327.194 171.093 327.194C196.722 327.194 217.106 304.033 217.106 275.59C217.51 247.35 196.924 223.986 171.093 223.986C145.462 223.986 125.079 247.146 125.079 275.59Z" fill="white"/>
<path d="M295.207 275.59C295.207 304.033 315.994 327.194 341.22 327.194C367.052 327.194 387.234 304.033 387.234 275.59C387.637 247.35 367.052 223.986 341.22 223.986C315.59 223.986 295.207 247.146 295.207 275.59Z" fill="white"/>
</symbol><symbol id="github-icon" viewBox="0 0 512 512">
<g clip-path="url(#clip0_1_1051)">
<path fill-rule="evenodd" clip-rule="evenodd" d="M0 262.495C0 378.45 73.3449 476.841 175.072 511.55C187.881 513.967 192.548 505.862 192.548 498.901C192.548 492.665 192.328 476.164 192.202 454.266C120.995 470.122 105.971 419.073 105.971 419.073C94.3253 388.747 77.541 380.674 77.541 380.674C54.2976 364.382 79.3011 364.721 79.3011 364.721C104.996 366.574 118.512 391.776 118.512 391.776C141.362 431.883 178.435 420.298 193.02 413.578C195.345 396.61 201.962 385.057 209.27 378.482C152.426 371.859 92.6594 349.348 92.6594 248.766C92.6594 220.099 102.639 196.67 119.015 178.316C116.39 171.677 107.605 144.992 121.529 108.865C121.529 108.865 143.028 101.791 191.919 135.759C212.35 129.942 234.242 127.025 256.008 126.929C277.758 127.025 299.65 129.942 320.112 135.759C368.972 101.791 390.439 108.865 390.439 108.865C404.395 144.992 395.61 171.677 392.985 178.316C409.393 196.67 419.293 220.099 419.293 248.766C419.293 349.59 359.448 371.779 302.416 378.289C311.61 386.394 319.782 402.411 319.782 426.888C319.782 461.984 319.483 490.296 319.483 498.901C319.483 505.926 324.088 514.08 337.085 511.518C438.718 476.744 512 378.434 512 262.495C512 117.518 397.37 0 255.976 0C114.63 0 0 117.518 0 262.495Z"/>
</g>

</symbol><symbol id="gmail-icon" viewBox="0 0 32 32"><path d="M16.58,19.1068l-12.69-8.0757A3,3,0,0,1,7.1109,5.97l9.31,5.9243L24.78,6.0428A3,3,0,0,1,28.22,10.9579Z" fill="#ea4435"/><path d="M25.5,5.5h4a0,0,0,0,1,0,0v18a3,3,0,0,1-3,3h0a3,3,0,0,1-3-3V7.5a2,2,0,0,1,2-2Z" fill="#00ac47" transform="translate(53.0001 32.0007) rotate(180)"/><path d="M29.4562,8.0656c-.0088-.06-.0081-.1213-.0206-.1812-.0192-.0918-.0549-.1766-.0823-.2652a2.9312,2.9312,0,0,0-.0958-.2993c-.02-.0475-.0508-.0892-.0735-.1354A2.9838,2.9838,0,0,0,28.9686,6.8c-.04-.0581-.09-.1076-.1342-.1626a3.0282,3.0282,0,0,0-.2455-.2849c-.0665-.0647-.1423-.1188-.2146-.1771a3.02,3.02,0,0,0-.24-.1857c-.0793-.0518-.1661-.0917-.25-.1359-.0884-.0461-.175-.0963-.267-.1331-.0889-.0358-.1837-.0586-.2766-.0859s-.1853-.06-.2807-.0777a3.0543,3.0543,0,0,0-.357-.036c-.0759-.0053-.1511-.0186-.2273-.018a2.9778,2.9778,0,0,0-.4219.0425c-.0563.0084-.113.0077-.1689.0193a33.211,33.211,0,0,0-.5645.178c-.0515.022-.0966.0547-.1465.0795A2.901,2.901,0,0,0,23.5,8.5v5.762l4.72-3.3043a2.8878,2.8878,0,0,0,1.2359-2.8923Z" fill="#ffba00"/><path d="M5.5,5.5h0a3,3,0,0,1,3,3v18a0,0,0,0,1,0,0h-4a2,2,0,0,1-2-2V8.5a3,3,0,0,1,3-3Z" fill="#4285f4"/><path d="M2.5439,8.0656c.0088-.06.0081-.1213.0206-.1812.0192-.0918.0549-.1766.0823-.2652A2.9312,2.9312,0,0,1,2.7426,7.32c.02-.0475.0508-.0892.0736-.1354A2.9719,2.9719,0,0,1,3.0316,6.8c.04-.0581.09-.1076.1342-.1626a3.0272,3.0272,0,0,1,.2454-.2849c.0665-.0647.1423-.1188.2147-.1771a3.0005,3.0005,0,0,1,.24-.1857c.0793-.0518.1661-.0917.25-.1359A2.9747,2.9747,0,0,1,4.3829,5.72c.089-.0358.1838-.0586.2766-.0859s.1853-.06.2807-.0777a3.0565,3.0565,0,0,1,.357-.036c.076-.0053.1511-.0186.2273-.018a2.9763,2.9763,0,0,1,.4219.0425c.0563.0084.113.0077.169.0193a2.9056,2.9056,0,0,1,.286.0888,2.9157,2.9157,0,0,1,.2785.0892c.0514.022.0965.0547.1465.0795a2.9745,2.9745,0,0,1,.3742.21A2.9943,2.9943,0,0,1,8.5,8.5v5.762L3.78,10.9579A2.8891,2.8891,0,0,1,2.5439,8.0656Z" fill="#c52528"/></symbol><symbol id="linkedin-icon" viewBox="0 0 512 512">
<path d="M474.069 0.0381776H37.781C17.1612 -0.194523 0.251654 16.3228 0 36.9429V475.05C0.243038 495.68 17.1512 512.214 37.781 511.997H474.069C494.739 512.253 511.714 495.721 512 475.05V36.9113C511.705 16.2504 494.729 -0.265924 474.069 0.00324376"/>
<path d="M360.386 436.256H436.248L436.28 302.23C436.28 236.434 422.103 185.858 345.213 185.858C315.819 184.767 288.208 199.932 273.358 225.323H272.338V191.935H199.51V436.249H275.373V315.388C275.373 283.517 281.418 252.65 320.93 252.65C359.88 252.65 360.386 289.12 360.386 317.45V436.256Z" fill="white"/>
<path d="M69.8804 114.522C69.8847 138.836 89.5984 158.543 113.912 158.539C125.588 158.537 136.785 153.896 145.039 145.639C153.294 137.381 157.93 126.182 157.928 114.506C157.924 90.1917 138.21 70.4847 113.896 70.489C89.5826 70.4934 69.876 90.2075 69.8804 114.522Z" fill="white"/>
<path d="M75.9019 436.256H151.843V191.935H75.9019V436.256Z" fill="white"/>
</symbol><symbol id="telegram-icon" viewBox="0 0 256 256" preserveAspectRatio="xMidYMid">
		<g>
				<path d="M128,0 C57.307,0 0,57.307 0,128 L0,128 C0,198.693 57.307,256 128,256 L128,256 C198.693,256 256,198.693 256,128 L256,128 C256,57.307 198.693,0 128,0 L128,0 Z">

</path>
				<path d="M190.2826,73.6308 L167.4206,188.8978 C167.4206,188.8978 164.2236,196.8918 155.4306,193.0548 L102.6726,152.6068 L83.4886,143.3348 L51.1946,132.4628 C51.1946,132.4628 46.2386,130.7048 45.7586,126.8678 C45.2796,123.0308 51.3546,120.9528 51.3546,120.9528 L179.7306,70.5928 C179.7306,70.5928 190.2826,65.9568 190.2826,73.6308" fill="#FFFFFF">

</path>
				<path d="M98.6178,187.6035 C98.6178,187.6035 97.0778,187.4595 95.1588,181.3835 C93.2408,175.3085 83.4888,143.3345 83.4888,143.3345 L161.0258,94.0945 C161.0258,94.0945 165.5028,91.3765 165.3428,94.0945 C165.3428,94.0945 166.1418,94.5735 163.7438,96.8115 C161.3458,99.0505 102.8328,151.6475 102.8328,151.6475" fill="#D2E5F1">

</path>
				<path d="M122.9015,168.1154 L102.0335,187.1414 C102.0335,187.1414 100.4025,188.3794 98.6175,187.6034 L102.6135,152.2624" fill="#B5CFE4">

</path>
		</g>
</symbol><symbol id="whatsapp-icon" viewBox="0 0 100 100">

<g id="Layer_1"/>

<g id="Layer_2">

<g>

<g>

<path fill="white" d="M82.773,17.048c-38.434-37.321-98.728,8.848-72.606,55.645c-0.001,0-6.545,23.896-6.545,23.896     l24.455-6.412C74.864,114.914,119.655,54.965,82.773,17.048z"/>

<path d="M50.143,88.745c-7.593,0.027-14.974-2.253-21.34-6.295c0,0-14.796,3.879-14.796,3.879l3.95-14.421     c-4.438-6.577-6.941-14.291-6.907-22.275C10.98,15.084,53.475-2.531,77.796,22.018C102.312,46.358,84.702,88.821,50.143,88.745z"/>

<path fill="white" d="M71.585,59.476c-1.175-0.588-6.953-3.431-8.03-3.823c-1.077-0.392-1.861-0.588-2.644,0.589     c-0.784,1.176-3.034,3.822-3.72,4.605c-0.685,0.785-1.371,0.883-2.546,0.295c-2.539,0.339-15.564-10.676-15.988-13.97     c-0.685-1.175-0.073-1.812,0.516-2.398c1.023-1.123,2.318-2.535,2.937-4.018c0.392-0.785,0.196-1.471-0.098-2.059     c-0.294-0.588-2.578-6.4-3.623-8.723c-0.88-1.957-1.807-1.996-2.644-2.031c-1.983,0.031-3.518-0.484-5.386,1.443     c-7.004,6.741-3.792,16.214,0.685,21.955c0.587,0.784,8.13,13.028,20.075,17.738c9.927,3.915,11.947,3.136,14.102,2.94     c2.155-0.196,6.953-2.842,7.932-5.586c0.979-2.744,0.979-5.096,0.686-5.587C73.544,60.358,72.76,60.064,71.585,59.476z"/>

</g>

</g>

</g>

</symbol></svg>