<?xml version="1.0" standalone="no"?>
<!DOCTYPE svg PUBLIC "-//W3C//DTD SVG 20010904//EN"
 "http://www.w3.org/TR/2001/REC-SVG-20010904/DTD/svg10.dtd">
<svg version="1.0" xmlns="http://www.w3.org/2000/svg"
 width="330.000000pt" height="330.000000pt" viewBox="0 0 330.000000 330.000000"
 preserveAspectRatio="xMidYMid meet">
<metadata>
Created by potrace 1.14, written by Peter Selinger 2001-2017
</metadata>
<g transform="translate(0.000000,330.000000) scale(0.100000,-0.100000)"
fill="#000000" stroke="none">
<path d="M2090 2684 c-30 -8 -62 -16 -71 -18 -20 -5 -182 -86 -189 -95 -3 -3
-32 -24 -65 -46 -33 -22 -109 -88 -169 -147 -106 -104 -134 -122 -118 -75 7
19 8 42 2 50 -1 1 -3 9 -5 17 -20 100 -112 178 -215 182 -43 2 -135 -14 -160
-27 -17 -9 -31 -15 -32 -14 -2 0 -16 -4 -31 -10 -16 -6 -30 -11 -32 -11 -8 0
-160 -92 -165 -99 -3 -4 -12 -12 -21 -17 -43 -24 -261 -224 -245 -224 3 0 -12
-18 -34 -40 -22 -22 -37 -40 -35 -40 4 0 -12 -22 -40 -54 -36 -40 -151 -223
-190 -301 -11 -22 -26 -44 -33 -48 -7 -5 -10 -12 -8 -16 3 -5 -8 -39 -24 -77
-16 -38 -30 -77 -30 -86 0 -10 -4 -18 -8 -18 -4 0 -8 -8 -9 -17 -1 -19 -9 -68
-15 -93 -1 -8 -7 -18 -13 -22 -6 -5 -5 -8 2 -8 9 0 10 -7 4 -23 -5 -13 -8 -70
-6 -127 3 -121 10 -166 33 -223 7 -15 15 -39 18 -52 3 -14 10 -25 16 -25 5 0
7 -4 4 -9 -3 -5 1 -14 9 -21 8 -7 15 -17 15 -23 0 -5 10 -18 22 -28 11 -11 18
-19 13 -19 -15 0 61 -62 115 -93 55 -32 66 -36 107 -40 13 -1 23 -5 23 -8 0
-7 12 -8 118 -10 101 -2 158 5 262 32 79 21 99 26 128 33 9 2 31 10 47 17 17
7 35 14 40 14 13 2 33 10 135 54 94 41 87 40 150 22 25 -7 56 -16 70 -19 35
-8 217 -8 265 1 60 10 84 15 93 20 4 3 24 8 45 11 21 3 46 10 55 15 9 5 37 7
62 6 77 -5 109 5 148 45 34 35 93 65 229 119 50 20 53 20 65 2 65 -90 224 -57
237 49 2 17 62 38 96 35 61 -7 78 -15 103 -46 36 -43 69 -57 124 -55 58 2 92
31 134 114 16 31 29 59 30 62 0 3 3 12 7 20 13 33 22 87 21 125 -1 47 -23 125
-36 125 -4 0 -8 5 -8 10 0 15 -47 60 -54 53 -3 -4 -6 -2 -6 4 0 6 -8 13 -17
17 -10 3 -31 11 -48 17 -16 6 -41 13 -55 15 -44 8 -182 5 -234 -5 -28 -6 -63
-13 -78 -15 -58 -10 -207 -62 -328 -115 -58 -25 -108 -45 -112 -43 -5 1 -8 -2
-8 -7 0 -22 -39 -20 -81 3 -24 14 -68 29 -98 34 -58 10 -176 9 -229 -3 -19 -4
-43 -8 -55 -10 -12 -1 -53 -11 -91 -20 -56 -15 -69 -16 -76 -4 -5 7 -6 18 -2
24 8 12 8 16 16 91 3 31 7 59 10 61 2 2 15 -7 27 -20 38 -39 123 -78 184 -84
30 -3 55 -1 55 3 0 5 13 15 28 22 30 13 49 41 57 81 2 13 7 26 9 29 3 2 1 13
-5 23 -6 13 -6 19 1 19 5 0 10 4 10 10 0 13 84 149 115 184 14 16 25 35 25 42
0 7 3 14 8 16 13 5 62 76 62 89 0 7 3 10 6 6 4 -3 25 22 46 56 22 34 44 64 49
65 5 2 9 8 9 13 0 6 8 19 18 30 11 10 25 32 33 47 8 15 16 29 20 32 14 13 49
79 49 94 0 10 3 15 8 13 4 -3 7 5 8 16 1 21 11 72 14 72 1 0 3 21 4 48 1 26 0
47 -4 47 -4 0 -6 10 -5 23 2 22 -43 117 -55 117 -3 0 -15 8 -26 18 -50 46
-148 60 -244 36z m-970 -1044 c-6 -11 -8 -20 -5 -20 4 0 3 -6 -2 -12 -4 -7 -8
-15 -8 -18 -2 -10 -15 -76 -21 -100 -8 -33 -13 -242 -6 -255 3 -5 7 -21 8 -35
2 -14 5 -34 8 -46 5 -18 -4 -25 -62 -52 -37 -16 -87 -38 -112 -47 -25 -9 -54
-21 -65 -26 -11 -6 -30 -11 -43 -12 -12 0 -22 -5 -22 -9 0 -3 -8 -7 -17 -6
-10 0 -39 -4 -64 -9 -71 -15 -120 0 -102 31 4 6 8 44 9 86 2 77 12 211 19 246
2 10 4 25 4 33 1 8 14 1 34 -19 28 -28 104 -75 117 -72 3 1 14 -1 26 -4 45
-11 60 -11 94 3 52 21 98 79 86 109 -3 8 -1 14 5 14 7 0 7 6 0 17 -9 16 4 51
32 88 4 5 26 38 48 73 37 59 62 85 39 42z"/>
</g>
</svg>
