<svg width="510" height="512" viewBox="0 0 510 512" fill="none" xmlns="http://www.w3.org/2000/svg">
<path d="M140.825 430.814L148.529 435.381C180.901 454.591 218.016 464.751 255.862 464.772H255.945C372.174 464.772 466.773 370.195 466.823 253.956C466.84 197.623 444.93 144.654 405.113 104.809C365.295 64.9651 312.354 43.0085 256.024 42.9854C139.702 42.9854 45.1057 137.549 45.0595 253.784C45.0437 293.616 56.1881 332.408 77.2992 365.975L82.3185 373.949L61.0091 451.741L140.825 430.814ZM0.0927734 512L36.0878 380.571C13.8867 342.106 2.20584 298.47 2.22287 253.767C2.27883 113.921 116.091 0.145081 255.945 0.145081C323.812 0.174277 387.513 26.5894 435.419 74.528C483.317 122.47 509.686 186.197 509.663 253.973C509.604 393.812 395.776 507.609 255.945 507.609C255.935 507.609 255.951 507.609 255.945 507.609H255.835C213.376 507.591 171.651 496.942 134.594 476.733L0.0927734 512Z" fill="white"/>
<path d="M10.8011 253.566C10.8011 297.05 22.1662 339.052 43.9081 376.112L8.82449 503.105L138.782 469.009C174.36 488.775 214.879 498.657 255.892 498.657C390.791 498.657 500.983 388.959 500.983 254.06C500.983 188.34 475.288 127.067 429.334 80.6187C382.885 34.6642 321.612 8.96912 255.892 8.96912C120.993 8.96912 10.8011 118.667 10.8011 253.566Z" fill="url(#paint0_linear_1_913)"/>
<path d="M2.04745 253.368C2.04745 298.411 13.8201 341.919 36.3418 380.308L3.05176e-05 511.855L134.618 476.537C171.471 497.011 213.444 507.248 255.928 507.248C395.664 507.248 509.808 393.617 509.808 253.88C509.808 185.803 483.191 122.333 435.589 74.219C387.474 26.6165 324.004 0 255.928 0C116.191 0 2.04745 113.632 2.04745 253.368ZM82.4087 373.654L77.2901 365.976C56.3041 332.194 45.0433 293.293 45.0433 253.88C45.0433 137.177 139.736 42.9958 255.928 42.9958C312.232 42.9958 365.465 65.0056 404.877 104.418C444.802 144.343 466.812 197.576 466.812 253.88C466.812 370.071 372.119 464.764 255.928 464.764C218.05 464.764 180.685 454.527 148.438 435.077L140.76 430.47L60.9108 451.456L82.4087 373.654Z" fill="url(#paint1_linear_1_913)"/>
<path fill-rule="evenodd" clip-rule="evenodd" d="M192.532 147.829C187.783 137.273 182.784 137.061 178.266 136.876C174.572 136.718 170.341 136.728 166.117 136.728C161.891 136.728 155.021 138.315 149.214 144.659C143.401 151.003 127.022 166.339 127.022 197.528C127.022 228.722 149.742 258.861 152.908 263.094C156.079 267.322 196.766 333.373 261.203 358.784C314.755 379.901 325.653 375.701 337.276 374.645C348.9 373.588 374.784 359.312 380.067 344.509C385.35 329.707 385.35 317.02 383.765 314.369C382.18 311.726 377.954 310.141 371.613 306.971C365.273 303.801 334.106 288.462 328.294 286.349C322.483 284.236 318.255 283.179 314.029 289.525C309.802 295.866 297.66 310.141 293.96 314.369C290.262 318.606 286.564 319.134 280.224 315.963C273.883 312.783 253.466 306.096 229.244 284.5C210.398 267.697 197.674 246.946 193.975 240.6C190.277 234.259 193.58 230.825 196.76 227.665C199.606 224.824 203.1 220.265 206.27 216.563C209.433 212.861 210.49 210.219 212.603 205.992C214.716 201.758 213.66 198.056 212.075 194.886C210.49 191.716 198.17 160.364 192.532 147.829Z" fill="white"/>
<defs>
<linearGradient id="paint0_linear_1_913" x1="254.877" y1="503.105" x2="254.877" y2="8.96912" gradientUnits="userSpaceOnUse">
<stop stop-color="#20B038"/>
<stop offset="1" stop-color="#60D66A"/>
</linearGradient>
<linearGradient id="paint1_linear_1_913" x1="254.881" y1="511.855" x2="254.881" y2="0" gradientUnits="userSpaceOnUse">
<stop stop-color="#F9F9F9"/>
<stop offset="1" stop-color="white"/>
</linearGradient>
</defs>
</svg>
