<svg width="512" height="512" fill="none" xmlns="http://www.w3.org/2000/svg"><path fill-rule="evenodd" clip-rule="evenodd" d="M118.874 63.847C145.165 32.392 191.428 0 255.204 0c30.786 0 54.019 8.041 54.253 8.122l.113-.05c44.017 14.194 81.693 43.988 104.482 87.925l-.034.04c.401.686 20.125 34.664 20.125 83.436 0 52.674-20.413 90.39-20.413 90.39-14.232 29.421-43.355 65.581-54.991 80.028l-.001.002c-1.943 2.412-3.398 4.219-4.215 5.288-21.078 26.392-42.528 53.851-59.79 84.753-8.798 16.005-14.374 32.946-21.481 55.141-3.422 10.196-7.851 16.789-17.615 16.789-8.958 0-13.126-3.875-17.736-16.86-7.519-23.503-11.807-36.73-22.094-56.237a517.165 517.165 0 0 0-40.334-59.489l.011-.064c-6.719-9.069-14.3-18.478-22.164-28.239-21.338-26.486-44.763-55.562-58.725-87.453 0 0-17.595-34.455-17.595-84.372 0-47.178 18.34-88.417 41.874-115.303Zm84.109 70.779.04.034-.354.421c-2.3 2.811-15.328 19.785-15.328 43.536 0 37.988 30.479 68.115 68.206 68.115 25.896 0 42.908-14.275 49.483-20.996l3.06-3.484 1.26-1.577c3.685-4.912 14.453-21.102 14.453-42.561 0-38.874-32.734-67.914-68.095-67.914-33.439 0-52.644 24.379-52.644 24.379v-.049l-.081.096Z" fill="#F14336"/></svg>